ffmpeg started on 2026-01-13 at 11:11:39
Report written to "D:\Convert\FFMetrics\reports\psnr_report-6.txt"
Log level: 32
Command line:
ffmpeg -hide_banner -nostdin -r 24000/1001 -i "F:\\Convert\\files\\[DC] Make Heroine ga Oosugiru - 07_Telegram_HEVC(73).mkv" -r 24000/1001 -i "F:\\Convert\\files\\[DC] Make Heroine ga Oosugiru - 07_Telegram.mp4" -lavfi "[0:v]settb=AVTB,setpts=PTS-STARTPTS,format=pix_fmts=yuv420p10le,fps=24000/1001,scale=1920:1080:flags=lanczos:param0=3:out_range=limited:out_color_matrix=bt709:out_chroma_loc=left,setsar=1/1,setdar=(1920/1080)*(1/1),colorspace=format=yuv420p10:range=tv:primaries=bt709:trc=bt709:space=bt709:fast=0[main];[1:v]settb=AVTB,setpts=PTS-STARTPTS,format=pix_fmts=yuv420p,fps=24000/1001,scale=1920:1080:flags=lanczos:param0=3:out_range=limited:out_color_matrix=bt709:out_chroma_loc=left,setsar=1.000,setdar=1.778,colorspace=format=yuv420p:range=tv:primaries=bt709:trc=bt709:space=bt709:fast=0[ref];[main][ref]psnr=eof_action=endall:stats_file='D\\:/Convert/FFMetrics/logs/psnr_logfile-6.txt'" -f null -
Input #0, matroska,webm, from 'F:\Convert\files\[DC] Make Heroine ga Oosugiru - 07_Telegram_HEVC(73).mkv':
  Metadata:
    COMPATIBLE_BRANDS: isomiso2avc1mp41
    MAJOR_BRAND     : isom
    MINOR_VERSION   : 512
    ENCODER         : Lavf61.7.100
  Duration: 00:24:06.79, start: -0.021000, bitrate: 934 kb/s
  Stream #0:0: Video: hevc (Main 10), yuv420p10le(tv, bt709, progressive), 1920x1080 [SAR 1:1 DAR 16:9], 23.98 fps, 23.98 tbr, 1k tbn (default)
      Metadata:
        HANDLER_NAME    : VideoHandler
        VENDOR_ID       : [0][0][0][0]
        ENCODER         : Lavc61.19.100 libx265
        BPS             : 737176
        DURATION        : 00:24:06.569708333
        NUMBER_OF_FRAMES: 34683
        NUMBER_OF_BYTES : 133297008
        _STATISTICS_WRITING_APP: mkvpropedit v94.0 ('Initiate') 64-bit
        _STATISTICS_WRITING_DATE_UTC: 2026-01-11 14:34:37
        _STATISTICS_TAGS: BPS DURATION NUMBER_OF_FRAMES NUMBER_OF_BYTES
  Stream #0:1: Audio: aac (LC), 48000 Hz, stereo, fltp (default)
      Metadata:
        HANDLER_NAME    : SoundHandler
        VENDOR_ID       : [0][0][0][0]
        ENCODER         : Lavc61.19.100 aac
        BPS             : 193194
        DURATION        : 00:24:06.784000000
        NUMBER_OF_FRAMES: 67819
        NUMBER_OF_BYTES : 34938755
        _STATISTICS_WRITING_APP: mkvpropedit v94.0 ('Initiate') 64-bit
        _STATISTICS_WRITING_DATE_UTC: 2026-01-11 14:34:37
        _STATISTICS_TAGS: BPS DURATION NUMBER_OF_FRAMES NUMBER_OF_BYTES
Input #1, mov,mp4,m4a,3gp,3g2,mj2, from 'F:\Convert\files\[DC] Make Heroine ga Oosugiru - 07_Telegram.mp4':
  Metadata:
    major_brand     : isom
    minor_version   : 512
    compatible_brands: isomiso2avc1mp41
    encoder         : Lavf60.16.100
  Duration: 00:24:06.74, start: 0.000000, bitrate: 3764 kb/s
  Stream #1:0[0x1](und): Video: h264 (High) (avc1 / 0x31637661), yuv420p(tv, bt709, progressive), 1920x1080 [SAR 1:1 DAR 16:9], 3616 kb/s, 23.98 fps, 23.98 tbr, 24k tbn (default)
      Metadata:
        handler_name    : VideoHandler
        vendor_id       : [0][0][0][0]
        encoder         : Lavc60.31.102 h264_qsv
  Stream #1:1[0x2](und): Audio: aac (HE-AACv2) (mp4a / 0x6134706D), 48000 Hz, stereo, fltp, 144 kb/s (default)
      Metadata:
        handler_name    : SoundHandler
        vendor_id       : [0][0][0][0]
Stream mapping:
  Stream #0:0 (hevc) -> settb:default
  Stream #1:0 (h264) -> settb:default
  psnr:default -> Stream #0:0 (wrapped_avframe)
  Stream #0:1 -> #0:1 (aac (native) -> pcm_s16le (native))
Output #0, null, to 'pipe:':
  Metadata:
    COMPATIBLE_BRANDS: isomiso2avc1mp41
    MAJOR_BRAND     : isom
    MINOR_VERSION   : 512
    encoder         : Lavf61.7.100
  Stream #0:0: Video: wrapped_avframe, yuv420p10le(tv, bt709, progressive), 1920x1080 [SAR 1:1 DAR 16:9], q=2-31, 200 kb/s, 23.98 fps, 23.98 tbn
      Metadata:
        encoder         : Lavc61.19.100 wrapped_avframe
  Stream #0:1: Audio: pcm_s16le, 48000 Hz, stereo, s16, 1536 kb/s (default)
      Metadata:
        HANDLER_NAME    : SoundHandler
        VENDOR_ID       : [0][0][0][0]
        _STATISTICS_TAGS: BPS DURATION NUMBER_OF_FRAMES NUMBER_OF_BYTES
        BPS             : 193194
        DURATION        : 00:24:06.784000000
        NUMBER_OF_FRAMES: 67819
        NUMBER_OF_BYTES : 34938755
        _STATISTICS_WRITING_APP: mkvpropedit v94.0 ('Initiate') 64-bit
        _STATISTICS_WRITING_DATE_UTC: 2026-01-11 14:34:37
        encoder         : Lavc61.19.100 pcm_s16le
frame=  129 fps=0.0 q=-0.0 size=N/A time=00:00:05.38 bitrate=N/A speed=10.3x    frame=  325 fps=314 q=-0.0 size=N/A time=00:00:13.55 bitrate=N/A speed=13.1x    frame=  459 fps=297 q=-0.0 size=N/A time=00:00:19.14 bitrate=N/A speed=12.4x    frame=  606 fps=293 q=-0.0 size=N/A time=00:00:25.27 bitrate=N/A speed=12.2x    frame=  796 fps=308 q=-0.0 size=N/A time=00:00:33.19 bitrate=N/A speed=12.9x    frame=  950 fps=307 q=-0.0 size=N/A time=00:00:39.62 bitrate=N/A speed=12.8x    frame= 1108 fps=307 q=-0.0 size=N/A time=00:00:46.21 bitrate=N/A speed=12.8x    frame= 1273 fps=308 q=-0.0 size=N/A time=00:00:53.09 bitrate=N/A speed=12.8x    frame= 1418 fps=305 q=-0.0 size=N/A time=00:00:59.14 bitrate=N/A speed=12.7x    frame= 1552 fps=301 q=-0.0 size=N/A time=00:01:04.73 bitrate=N/A speed=12.6x    frame= 1687 fps=298 q=-0.0 size=N/A time=00:01:10.36 bitrate=N/A speed=12.4x    frame= 1854 fps=299 q=-0.0 size=N/A time=00:01:17.32 bitrate=N/A speed=12.5x    frame= 2009 fps=300 q=-0.0 size=N/A time=00:01:23.79 bitrate=N/A speed=12.5x    frame= 2110 fps=292 q=-0.0 size=N/A time=00:01:28.00 bitrate=N/A speed=12.2x    frame= 2273 fps=294 q=-0.0 size=N/A time=00:01:34.80 bitrate=N/A speed=12.2x    frame= 2418 fps=293 q=-0.0 size=N/A time=00:01:40.85 bitrate=N/A speed=12.2x    frame= 2522 fps=288 q=-0.0 size=N/A time=00:01:45.18 bitrate=N/A speed=  12x    frame= 2678 fps=289 q=-0.0 size=N/A time=00:01:51.69 bitrate=N/A speed=  12x    frame= 2847 fps=290 q=-0.0 size=N/A time=00:01:58.74 bitrate=N/A speed=12.1x    frame= 3021 fps=293 q=-0.0 size=N/A time=00:02:06.00 bitrate=N/A speed=12.2x    frame= 3215 fps=297 q=-0.0 size=N/A time=00:02:14.09 bitrate=N/A speed=12.4x    frame= 3407 fps=300 q=-0.0 size=N/A time=00:02:22.10 bitrate=N/A speed=12.5x    frame= 3583 fps=302 q=-0.0 size=N/A time=00:02:29.44 bitrate=N/A speed=12.6x    frame= 3766 fps=304 q=-0.0 size=N/A time=00:02:37.07 bitrate=N/A speed=12.7x    frame= 3954 fps=307 q=-0.0 size=N/A time=00:02:44.91 bitrate=N/A speed=12.8x    frame= 4143 fps=309 q=-0.0 size=N/A time=00:02:52.79 bitrate=N/A speed=12.9x    frame= 4336 fps=311 q=-0.0 size=N/A time=00:03:00.84 bitrate=N/A speed=  13x    frame= 4517 fps=313 q=-0.0 size=N/A time=00:03:08.39 bitrate=N/A speed=13.1x    frame= 4718 fps=316 q=-0.0 size=N/A time=00:03:16.77 bitrate=N/A speed=13.2x    frame= 4884 fps=316 q=-0.0 size=N/A time=00:03:23.70 bitrate=N/A speed=13.2x    frame= 5063 fps=317 q=-0.0 size=N/A time=00:03:31.16 bitrate=N/A speed=13.2x    frame= 5241 fps=318 q=-0.0 size=N/A time=00:03:38.59 bitrate=N/A speed=13.3x    frame= 5443 fps=320 q=-0.0 size=N/A time=00:03:47.01 bitrate=N/A speed=13.3x    frame= 5632 fps=321 q=-0.0 size=N/A time=00:03:54.90 bitrate=N/A speed=13.4x    frame= 5815 fps=322 q=-0.0 size=N/A time=00:04:02.53 bitrate=N/A speed=13.4x    frame= 5999 fps=323 q=-0.0 size=N/A time=00:04:10.20 bitrate=N/A speed=13.5x    frame= 6170 fps=323 q=-0.0 size=N/A time=00:04:17.34 bitrate=N/A speed=13.5x    frame= 6353 fps=324 q=-0.0 size=N/A time=00:04:24.97 bitrate=N/A speed=13.5x    frame= 6553 fps=326 q=-0.0 size=N/A time=00:04:33.31 bitrate=N/A speed=13.6x    frame= 6748 fps=327 q=-0.0 size=N/A time=00:04:41.44 bitrate=N/A speed=13.6x    frame= 6941 fps=328 q=-0.0 size=N/A time=00:04:49.49 bitrate=N/A speed=13.7x    frame= 7121 fps=329 q=-0.0 size=N/A time=00:04:57.00 bitrate=N/A speed=13.7x    frame= 7315 fps=330 q=-0.0 size=N/A time=00:05:05.09 bitrate=N/A speed=13.7x    frame= 7452 fps=328 q=-0.0 size=N/A time=00:05:10.81 bitrate=N/A speed=13.7x    frame= 7623 fps=328 q=-0.0 size=N/A time=00:05:17.94 bitrate=N/A speed=13.7x    frame= 7809 fps=329 q=-0.0 size=N/A time=00:05:25.70 bitrate=N/A speed=13.7x    frame= 8002 fps=330 q=-0.0 size=N/A time=00:05:33.75 bitrate=N/A speed=13.8x    frame= 8187 fps=331 q=-0.0 size=N/A time=00:05:41.46 bitrate=N/A speed=13.8x    frame= 8385 fps=332 q=-0.0 size=N/A time=00:05:49.72 bitrate=N/A speed=13.8x    frame= 8562 fps=332 q=-0.0 size=N/A time=00:05:57.10 bitrate=N/A speed=13.8x    frame= 8762 fps=333 q=-0.0 size=N/A time=00:06:05.44 bitrate=N/A speed=13.9x    frame= 8947 fps=334 q=-0.0 size=N/A time=00:06:13.16 bitrate=N/A speed=13.9x    frame= 9122 fps=334 q=-0.0 size=N/A time=00:06:20.46 bitrate=N/A speed=13.9x    frame= 9323 fps=335 q=-0.0 size=N/A time=00:06:28.84 bitrate=N/A speed=  14x    frame= 9514 fps=335 q=-0.0 size=N/A time=00:06:36.81 bitrate=N/A speed=  14x    frame= 9704 fps=336 q=-0.0 size=N/A time=00:06:44.73 bitrate=N/A speed=  14x    frame= 9860 fps=335 q=-0.0 size=N/A time=00:06:51.24 bitrate=N/A speed=  14x    frame=10037 fps=335 q=-0.0 size=N/A time=00:06:58.62 bitrate=N/A speed=  14x    frame=10228 fps=336 q=-0.0 size=N/A time=00:07:06.59 bitrate=N/A speed=  14x    frame=10421 fps=336 q=-0.0 size=N/A time=00:07:14.64 bitrate=N/A speed=  14x    frame=10616 fps=337 q=-0.0 size=N/A time=00:07:22.77 bitrate=N/A speed=14.1x    frame=10813 fps=338 q=-0.0 size=N/A time=00:07:30.99 bitrate=N/A speed=14.1x    frame=10995 fps=338 q=-0.0 size=N/A time=00:07:38.58 bitrate=N/A speed=14.1x    frame=11178 fps=338 q=-0.0 size=N/A time=00:07:46.21 bitrate=N/A speed=14.1x    frame=11364 fps=339 q=-0.0 size=N/A time=00:07:53.97 bitrate=N/A speed=14.1x    frame=11554 fps=339 q=-0.0 size=N/A time=00:08:01.89 bitrate=N/A speed=14.1x    frame=11731 fps=339 q=-0.0 size=N/A time=00:08:09.28 bitrate=N/A speed=14.2x    frame=11908 fps=339 q=-0.0 size=N/A time=00:08:16.66 bitrate=N/A speed=14.2x    frame=12102 fps=340 q=-0.0 size=N/A time=00:08:24.75 bitrate=N/A speed=14.2x    frame=12295 fps=340 q=-0.0 size=N/A time=00:08:32.80 bitrate=N/A speed=14.2x    frame=12427 fps=339 q=-0.0 size=N/A time=00:08:38.30 bitrate=N/A speed=14.1x    frame=12626 fps=340 q=-0.0 size=N/A time=00:08:46.60 bitrate=N/A speed=14.2x    frame=12816 fps=340 q=-0.0 size=N/A time=00:08:54.53 bitrate=N/A speed=14.2x    frame=12988 fps=340 q=-0.0 size=N/A time=00:09:01.70 bitrate=N/A speed=14.2x    frame=13157 fps=340 q=-0.0 size=N/A time=00:09:08.75 bitrate=N/A speed=14.2x    frame=13335 fps=340 q=-0.0 size=N/A time=00:09:16.18 bitrate=N/A speed=14.2x    frame=13502 fps=340 q=-0.0 size=N/A time=00:09:23.14 bitrate=N/A speed=14.2x    frame=13681 fps=340 q=-0.0 size=N/A time=00:09:30.61 bitrate=N/A speed=14.2x    frame=13871 fps=340 q=-0.0 size=N/A time=00:09:38.53 bitrate=N/A speed=14.2x    frame=14064 fps=341 q=-0.0 size=N/A time=00:09:46.58 bitrate=N/A speed=14.2x    frame=14235 fps=340 q=-0.0 size=N/A time=00:09:53.71 bitrate=N/A speed=14.2x    frame=14432 fps=341 q=-0.0 size=N/A time=00:10:01.93 bitrate=N/A speed=14.2x    frame=14612 fps=341 q=-0.0 size=N/A time=00:10:09.44 bitrate=N/A speed=14.2x    frame=14781 fps=341 q=-0.0 size=N/A time=00:10:16.49 bitrate=N/A speed=14.2x    frame=14943 fps=341 q=-0.0 size=N/A time=00:10:23.24 bitrate=N/A speed=14.2x    frame=15116 fps=341 q=-0.0 size=N/A time=00:10:30.46 bitrate=N/A speed=14.2x    frame=15301 fps=341 q=-0.0 size=N/A time=00:10:38.17 bitrate=N/A speed=14.2x    frame=15488 fps=341 q=-0.0 size=N/A time=00:10:45.97 bitrate=N/A speed=14.2x    frame=15673 fps=341 q=-0.0 size=N/A time=00:10:53.69 bitrate=N/A speed=14.2x    frame=15874 fps=342 q=-0.0 size=N/A time=00:11:02.07 bitrate=N/A speed=14.3x    frame=16063 fps=342 q=-0.0 size=N/A time=00:11:09.96 bitrate=N/A speed=14.3x    frame=16260 fps=342 q=-0.0 size=N/A time=00:11:18.17 bitrate=N/A speed=14.3x    frame=16448 fps=343 q=-0.0 size=N/A time=00:11:26.01 bitrate=N/A speed=14.3x    frame=16637 fps=343 q=-0.0 size=N/A time=00:11:33.90 bitrate=N/A speed=14.3x    frame=16830 fps=343 q=-0.0 size=N/A time=00:11:41.95 bitrate=N/A speed=14.3x    frame=17029 fps=344 q=-0.0 size=N/A time=00:11:50.25 bitrate=N/A speed=14.3x    frame=17219 fps=344 q=-0.0 size=N/A time=00:11:58.17 bitrate=N/A speed=14.3x    frame=17355 fps=343 q=-0.0 size=N/A time=00:12:03.84 bitrate=N/A speed=14.3x    frame=17540 fps=343 q=-0.0 size=N/A time=00:12:11.56 bitrate=N/A speed=14.3x    frame=17722 fps=343 q=-0.0 size=N/A time=00:12:19.15 bitrate=N/A speed=14.3x    frame=17895 fps=343 q=-0.0 size=N/A time=00:12:26.37 bitrate=N/A speed=14.3x    frame=18084 fps=344 q=-0.0 size=N/A time=00:12:34.25 bitrate=N/A speed=14.3x    frame=18251 fps=343 q=-0.0 size=N/A time=00:12:41.21 bitrate=N/A speed=14.3x    frame=18408 fps=343 q=-0.0 size=N/A time=00:12:47.76 bitrate=N/A speed=14.3x    frame=18581 fps=343 q=-0.0 size=N/A time=00:12:54.98 bitrate=N/A speed=14.3x    frame=18751 fps=343 q=-0.0 size=N/A time=00:13:02.07 bitrate=N/A speed=14.3x    frame=18940 fps=343 q=-0.0 size=N/A time=00:13:09.95 bitrate=N/A speed=14.3x    frame=19119 fps=343 q=-0.0 size=N/A time=00:13:17.42 bitrate=N/A speed=14.3x    frame=19315 fps=343 q=-0.0 size=N/A time=00:13:25.59 bitrate=N/A speed=14.3x    frame=19493 fps=343 q=-0.0 size=N/A time=00:13:33.02 bitrate=N/A speed=14.3x    frame=19683 fps=344 q=-0.0 size=N/A time=00:13:40.94 bitrate=N/A speed=14.3x    frame=19837 fps=343 q=-0.0 size=N/A time=00:13:47.36 bitrate=N/A speed=14.3x    frame=20028 fps=343 q=-0.0 size=N/A time=00:13:55.33 bitrate=N/A speed=14.3x    frame=20225 fps=344 q=-0.0 size=N/A time=00:14:03.55 bitrate=N/A speed=14.3x    frame=20415 fps=344 q=-0.0 size=N/A time=00:14:11.47 bitrate=N/A speed=14.3x    frame=20589 fps=344 q=-0.0 size=N/A time=00:14:18.73 bitrate=N/A speed=14.3x    frame=20771 fps=344 q=-0.0 size=N/A time=00:14:26.32 bitrate=N/A speed=14.3x    frame=20961 fps=344 q=-0.0 size=N/A time=00:14:34.24 bitrate=N/A speed=14.4x    frame=21121 fps=344 q=-0.0 size=N/A time=00:14:40.92 bitrate=N/A speed=14.3x    frame=21252 fps=343 q=-0.0 size=N/A time=00:14:46.38 bitrate=N/A speed=14.3x    frame=21435 fps=343 q=-0.0 size=N/A time=00:14:54.01 bitrate=N/A speed=14.3x    frame=21624 fps=344 q=-0.0 size=N/A time=00:15:01.90 bitrate=N/A speed=14.3x    frame=21814 fps=344 q=-0.0 size=N/A time=00:15:09.82 bitrate=N/A speed=14.3x    frame=22000 fps=344 q=-0.0 size=N/A time=00:15:17.58 bitrate=N/A speed=14.3x    frame=22178 fps=344 q=-0.0 size=N/A time=00:15:25.00 bitrate=N/A speed=14.3x    frame=22381 fps=344 q=-0.0 size=N/A time=00:15:33.47 bitrate=N/A speed=14.4x    frame=22574 fps=345 q=-0.0 size=N/A time=00:15:41.52 bitrate=N/A speed=14.4x    frame=22754 fps=345 q=-0.0 size=N/A time=00:15:49.03 bitrate=N/A speed=14.4x    frame=22931 fps=344 q=-0.0 size=N/A time=00:15:56.41 bitrate=N/A speed=14.4x    frame=23133 fps=345 q=-0.0 size=N/A time=00:16:04.83 bitrate=N/A speed=14.4x    frame=23311 fps=345 q=-0.0 size=N/A time=00:16:12.26 bitrate=N/A speed=14.4x    frame=23516 fps=345 q=-0.0 size=N/A time=00:16:20.81 bitrate=N/A speed=14.4x    frame=23661 fps=345 q=-0.0 size=N/A time=00:16:26.86 bitrate=N/A speed=14.4x    frame=23846 fps=345 q=-0.0 size=N/A time=00:16:34.57 bitrate=N/A speed=14.4x    frame=24038 fps=345 q=-0.0 size=N/A time=00:16:42.58 bitrate=N/A speed=14.4x    frame=24219 fps=345 q=-0.0 size=N/A time=00:16:50.13 bitrate=N/A speed=14.4x    frame=24414 fps=345 q=-0.0 size=N/A time=00:16:58.26 bitrate=N/A speed=14.4x    frame=24600 fps=346 q=-0.0 size=N/A time=00:17:06.02 bitrate=N/A speed=14.4x    frame=24781 fps=346 q=-0.0 size=N/A time=00:17:13.57 bitrate=N/A speed=14.4x    frame=24982 fps=346 q=-0.0 size=N/A time=00:17:21.95 bitrate=N/A speed=14.4x    frame=25168 fps=346 q=-0.0 size=N/A time=00:17:29.71 bitrate=N/A speed=14.4x    frame=25362 fps=346 q=-0.0 size=N/A time=00:17:37.80 bitrate=N/A speed=14.4x    frame=25556 fps=346 q=-0.0 size=N/A time=00:17:45.89 bitrate=N/A speed=14.4x    frame=25744 fps=346 q=-0.0 size=N/A time=00:17:53.73 bitrate=N/A speed=14.5x    frame=25932 fps=347 q=-0.0 size=N/A time=00:18:01.58 bitrate=N/A speed=14.5x    frame=26117 fps=347 q=-0.0 size=N/A time=00:18:09.29 bitrate=N/A speed=14.5x    frame=26281 fps=347 q=-0.0 size=N/A time=00:18:16.13 bitrate=N/A speed=14.5x    frame=26456 fps=346 q=-0.0 size=N/A time=00:18:23.43 bitrate=N/A speed=14.5x    frame=26656 fps=347 q=-0.0 size=N/A time=00:18:31.77 bitrate=N/A speed=14.5x    frame=26854 fps=347 q=-0.0 size=N/A time=00:18:40.03 bitrate=N/A speed=14.5x    frame=27025 fps=347 q=-0.0 size=N/A time=00:18:47.16 bitrate=N/A speed=14.5x    frame=27188 fps=347 q=-0.0 size=N/A time=00:18:53.96 bitrate=N/A speed=14.5x    frame=27357 fps=347 q=-0.0 size=N/A time=00:19:01.01 bitrate=N/A speed=14.5x    frame=27534 fps=347 q=-0.0 size=N/A time=00:19:08.39 bitrate=N/A speed=14.5x    frame=27726 fps=347 q=-0.0 size=N/A time=00:19:16.40 bitrate=N/A speed=14.5x    frame=27905 fps=347 q=-0.0 size=N/A time=00:19:23.87 bitrate=N/A speed=14.5x    frame=28091 fps=347 q=-0.0 size=N/A time=00:19:31.62 bitrate=N/A speed=14.5x    frame=28267 fps=347 q=-0.0 size=N/A time=00:19:38.96 bitrate=N/A speed=14.5x    frame=28444 fps=347 q=-0.0 size=N/A time=00:19:46.35 bitrate=N/A speed=14.5x    frame=28585 fps=346 q=-0.0 size=N/A time=00:19:52.23 bitrate=N/A speed=14.4x    frame=28757 fps=346 q=-0.0 size=N/A time=00:19:59.40 bitrate=N/A speed=14.4x    frame=28922 fps=346 q=-0.0 size=N/A time=00:20:06.28 bitrate=N/A speed=14.4x    frame=29079 fps=346 q=-0.0 size=N/A time=00:20:12.83 bitrate=N/A speed=14.4x    frame=29243 fps=346 q=-0.0 size=N/A time=00:20:19.67 bitrate=N/A speed=14.4x    frame=29418 fps=346 q=-0.0 size=N/A time=00:20:26.97 bitrate=N/A speed=14.4x    frame=29566 fps=345 q=-0.0 size=N/A time=00:20:33.14 bitrate=N/A speed=14.4x    frame=29738 fps=345 q=-0.0 size=N/A time=00:20:40.32 bitrate=N/A speed=14.4x    frame=29900 fps=345 q=-0.0 size=N/A time=00:20:47.07 bitrate=N/A speed=14.4x    frame=30070 fps=345 q=-0.0 size=N/A time=00:20:54.16 bitrate=N/A speed=14.4x    frame=30251 fps=345 q=-0.0 size=N/A time=00:21:01.71 bitrate=N/A speed=14.4x    frame=30422 fps=345 q=-0.0 size=N/A time=00:21:08.85 bitrate=N/A speed=14.4x    frame=30615 fps=345 q=-0.0 size=N/A time=00:21:16.90 bitrate=N/A speed=14.4x    frame=30802 fps=345 q=-0.0 size=N/A time=00:21:24.70 bitrate=N/A speed=14.4x    frame=30946 fps=345 q=-0.0 size=N/A time=00:21:30.70 bitrate=N/A speed=14.4x    frame=31137 fps=345 q=-0.0 size=N/A time=00:21:38.67 bitrate=N/A speed=14.4x    frame=31316 fps=345 q=-0.0 size=N/A time=00:21:46.13 bitrate=N/A speed=14.4x    frame=31485 fps=345 q=-0.0 size=N/A time=00:21:53.18 bitrate=N/A speed=14.4x    frame=31672 fps=345 q=-0.0 size=N/A time=00:22:00.98 bitrate=N/A speed=14.4x    frame=31827 fps=345 q=-0.0 size=N/A time=00:22:07.45 bitrate=N/A speed=14.4x    frame=31992 fps=344 q=-0.0 size=N/A time=00:22:14.33 bitrate=N/A speed=14.4x    frame=32183 fps=345 q=-0.0 size=N/A time=00:22:22.29 bitrate=N/A speed=14.4x    frame=32372 fps=345 q=-0.0 size=N/A time=00:22:30.18 bitrate=N/A speed=14.4x    frame=32559 fps=345 q=-0.0 size=N/A time=00:22:37.98 bitrate=N/A speed=14.4x    frame=32711 fps=345 q=-0.0 size=N/A time=00:22:44.32 bitrate=N/A speed=14.4x    frame=32847 fps=344 q=-0.0 size=N/A time=00:22:49.99 bitrate=N/A speed=14.4x    frame=33018 fps=344 q=-0.0 size=N/A time=00:22:57.12 bitrate=N/A speed=14.4x    frame=33158 fps=344 q=-0.0 size=N/A time=00:23:02.96 bitrate=N/A speed=14.3x    frame=33330 fps=344 q=-0.0 size=N/A time=00:23:10.13 bitrate=N/A speed=14.3x    frame=33489 fps=343 q=-0.0 size=N/A time=00:23:16.77 bitrate=N/A speed=14.3x    frame=33642 fps=343 q=-0.0 size=N/A time=00:23:23.15 bitrate=N/A speed=14.3x    frame=33773 fps=343 q=-0.0 size=N/A time=00:23:28.61 bitrate=N/A speed=14.3x    frame=33896 fps=342 q=-0.0 size=N/A time=00:23:33.74 bitrate=N/A speed=14.3x    frame=34055 fps=342 q=-0.0 size=N/A time=00:23:40.37 bitrate=N/A speed=14.3x    frame=34213 fps=342 q=-0.0 size=N/A time=00:23:46.96 bitrate=N/A speed=14.3x    frame=34353 fps=341 q=-0.0 size=N/A time=00:23:52.80 bitrate=N/A speed=14.2x    frame=34497 fps=341 q=-0.0 size=N/A time=00:23:58.81 bitrate=N/A speed=14.2x    [Parsed_psnr_16 @ 00000268537d30c0] PSNR y:48.752861 u:50.144204 v:50.186865 average:49.174660 min:37.978711 max:inf
[out#0/null @ 0000026846708a00] video:14903KiB audio:271276KiB subtitle:0KiB other streams:0KiB global headers:0KiB muxing overhead: unknown
frame=34683 fps=341 q=-0.0 Lsize=N/A time=00:24:06.57 bitrate=N/A speed=14.2x    
